<svg width="24" height="21" viewBox="0 0 24 21" fill="none" xmlns="http://www.w3.org/2000/svg">
<path d="M0.659263 1.08455C0.867958 0.909925 1.11581 0.771388 1.38863 0.676866C1.66146 0.582344 1.95391 0.533691 2.24926 0.533691C2.54461 0.533691 2.83706 0.582344 3.10989 0.676866C3.38272 0.771388 3.63057 0.909925 3.83926 1.08455L11.9993 7.9003L20.1593 1.08455C20.3681 0.910084 20.6159 0.771688 20.8888 0.677266C21.1616 0.582844 21.454 0.534246 21.7493 0.534246C22.0446 0.534246 22.337 0.582844 22.6098 0.677266C22.8826 0.771688 23.1305 0.910084 23.3393 1.08455C23.5481 1.25902 23.7137 1.46615 23.8267 1.6941C23.9397 1.92205 23.9979 2.16637 23.9979 2.41311C23.9979 2.65985 23.9397 2.90417 23.8267 3.13212C23.7137 3.36007 23.5481 3.5672 23.3393 3.74167L15.1823 10.5599L23.3393 17.3782C23.761 17.7305 23.9979 18.2084 23.9979 18.7067C23.9979 19.205 23.761 19.6829 23.3393 20.0353C22.9176 20.3876 22.3456 20.5856 21.7493 20.5856C21.1529 20.5856 20.581 20.3876 20.1593 20.0353L11.9993 13.2195L3.83926 20.0353C3.41757 20.3876 2.84563 20.5856 2.24926 20.5856C1.6529 20.5856 1.08096 20.3876 0.659263 20.0353C0.237569 19.6829 0.000663757 19.205 0.000663757 18.7067C0.000663757 18.2084 0.237569 17.7305 0.659263 17.3782L8.81626 10.5599L0.659263 3.74167C0.450271 3.56729 0.284472 3.36019 0.17135 3.13223C0.058227 2.90426 0 2.65989 0 2.41311C0 2.16632 0.058227 1.92196 0.17135 1.69399C0.284472 1.46603 0.450271 1.25893 0.659263 1.08455Z" fill="white"/>
</svg>
